# xmcd CD database file
#
# Track frame offsets:
#	150
#	70242
#	106820
#	150942
#	232430
#
# Disc length: 3559 seconds
#
# Revision: 2
# Processed by: cddbd v1.4PL0 Copyright (c) Steve Scherf et al.
# Submitted via: CDex 1.40Release
#
DISCID=390de505
DTITLE=Sekha Gong Semara Ratih - Gong Semara Dana
DYEAR=1996
DGENRE=National Folk
TTITLE0=Jagra Parwata
TTITLE1=Kindama
TTITLE2=Catur Angurit
TTITLE3=Gora Merdawa
TTITLE4=Lengker
EXTD=YEAR: 1996 ID3G: 82
EXTT0=
EXTT1=
EXTT2=
EXTT3=
EXTT4=
PLAYORDER=
